<svg width="21.764147" height="15.066895" version="1.1" viewBox="0 0 21.764147 15.066895" xmlns="http://www.w3.org/2000/svg">
 <path d="m86.600342-26.595078h-18.839545c-.916551 0-1.659511.742966-1.659511 1.659511v3.179711h22.158537v-3.179711c0-.916545-.742985-1.659511-1.659481-1.659511z" fill="#f5f5f5" stroke-width=".96341467"/>
 <path d="m66.101286-13.73698c0 .916593.74296 1.659578 1.659511 1.659578h18.839545c.916496 0 1.659481-.742985 1.659481-1.659578v-3.179653h-22.158537z" fill="#d7141a" stroke-width=".96341467"/>
 <path d="m88.259823-21.755942h-22.158537v4.838923h22.158537z" fill="#11457e" stroke-width=".96341467"/>
 <path d="m71.737194-15.731826c-.113085-.06493-2.770597-1.610637-2.770597-3.986514v-3.247324h5.73067v3.247324c0 2.375877-2.657512 3.92158-2.770598 3.986514l-.09474.05405z" fill="#d7141a" stroke-width=".96341467"/>
 <path d="m73.332985-20.291379-.900581.118693h-.300133v-.537489h.180082l.720461.118596-.09759-.418767.09759-.418797-.720461.118578h-.180082v-.181508l.118626-.900532-.418806.121997-.418806-.121997.118625.900532v.181508h-.180168l-.720374-.118578.09755.418797-.09755.418767.720374-.118596h.180168v.537489h-.300181l-.900542-.118693.121959.418797-.121959.418796.900542-.118596h.300181v1.382307h.600361v-1.382307h.300133l.900581.118596-.121959-.418796z" fill="#f5f5f5" stroke-width=".96341467"/>
 <path d="m71.831888-18.76321c-.394614 0-.733052.239408-.878634.580746-.02571-.0021-.05029-.0077-.07648-.0077-.508567 0-.920359.398661-.949531.899829.773602.952335 1.742566 1.519787 1.809909 1.558516l.09473.05405.09473-.05405c.06734-.03873 1.036307-.606181 1.809909-1.558516-.02913-.501168-.440964-.899829-.949532-.899829-.02618 0-.05081.0056-.07648.0077-.145582-.341338-.48402-.580746-.878635-.580746z" fill="#11457e" stroke-width=".96341467"/>
 <path d="m74.50627-22.774628v3.056385c0 2.292252-2.674295 3.820421-2.674295 3.820421s-2.674304-1.528169-2.674304-3.820421v-3.056385zm.382023-.382062h-6.112683v3.438447c0 2.48532 2.749778 4.085167 2.866804 4.152124l.189561.108288.189552-.108288c.117074-.06696 2.866804-1.666804 2.866804-4.152124v-3.438447z" fill="#f5f5f5" stroke-width=".96341467"/>
 <rect x="1.4787033e-6" y="4.1556419e-7" width="21.764145" height="15.066895" fill="#d7141a" stroke-width=".02464256"/>
 <rect x="1.4787033e-6" y="4.1556419e-7" width="21.764145" height="7.5334477" fill="#fff" stroke-width=".02464256"/>
 <path d="M 10.88207,7.533448 0,0 v 15.066895 z" fill="#11457e" stroke-width=".02464256"/>
</svg>
