<svg width="21.166666mm" height="21.166666mm" version="1.1" viewBox="0 0 21.166666 21.166666" xmlns="http://www.w3.org/2000/svg">
 <defs>
  <clipPath id="clip0-1">
   <rect transform="translate(50,48)" width="29" height="29" fill="#fff"/>
  </clipPath>
 </defs>
 <g transform="translate(-136.82739,64.534222)">
  <circle cx="147.41072" cy="-53.950893" r="10.583333" fill="#2f2f2f" opacity=".16000001" stroke-width=".26458332"/>
 </g>
 <g transform="translate(-144.30772,-129.33544)" fill="#fff" stroke-width=".26458332">
  <path d="m122.61806 134.88319c-.60526-.73076-1.37028-1.13321-2.15421-1.13321-.78396 0-1.54901.40245-2.15422 1.13321-.54403.65685-.8688 1.48468-.8688 2.21445 0 .35449.10837.6245.32209.80256.21095.17579.48945.23524.80016.23522.33062 0 .69771-.0673 1.05841-.13348.3152-.0578.61291-.11245.84236-.11245.19804 0 .47728.0518.77287.1067.6908.12827 1.47378.27361 1.92609-.10247.21503-.17878.32403-.44662.32403-.79608 3e-5-.72977-.32475-1.5576-.86878-2.21445zm.20775 2.60524c-.26218.21802-.94459.0913-1.49291-.0104-.32015-.0594-.62251-.11559-.86908-.11559-.27741 0-.59801.0588-.93747.1211-.52589.0965-1.18037.21653-1.42606.0118-.0328-.0273-.13241-.11034-.13241-.39767 0-.60172.28649-1.32141.74765-1.87823.50329-.60767 1.12419-.94234 1.74826-.94234.6241 0 1.24498.33467 1.74827.94234.46119.55682.74766 1.27651.74766 1.87823 5e-5.27945-.10076.36327-.13391.39081z"/>
  <path d="m122.67992 130.91506c-.22146-.3265-.53856-.51373-.87-.51373-.33147 0-.64858.18727-.87003.51373-.20342.29994-.31547.69382-.31547 1.10911 0 .41527.11203.80916.31547 1.10911.22145.32647.53856.51375.87003.51375s.64854-.18728.87-.51375c.20344-.29995.31546-.69384.31546-1.10911 0-.41529-.11202-.80919-.31546-1.10911zm-.43622 1.92234c-.0715.10552-.22307.28255-.43378.28255-.21072 0-.36225-.17701-.43382-.28255-.14274-.21045-.2246-.50686-.2246-.81323 0-.30639.0819-.60279.2246-.81325.0716-.1055.2231-.28252.43382-.28252.21071 0 .36224.177.43378.28252.14274.21046.2246.50688.2246.81325-2e-5.30637-.0819.60278-.2246.81323z"/>
  <path d="m119.98776 130.91502c-.22146-.32651-.53854-.51375-.87001-.51375-.33149 0-.64859.18726-.87002.51375-.20343.29993-.31547.69382-.31547 1.1091 0 .41529.11203.80918.31547 1.10911.22145.3265.53853.51377.87002.51377.33147 0 .64855-.18727.87001-.51377.20343-.29993.31546-.69382.31546-1.10911 0-.41528-.11203-.80918-.31546-1.1091zm-.43625 1.92235c-.0716.10552-.2231.28253-.43378.28253-.21072 0-.36224-.17701-.43381-.28253-.14274-.21045-.2246-.50686-.2246-.81323 0-.30639.0819-.60279.2246-.81324.0716-.10551.22309-.28253.43381-.28253.21071 0 .36221.177.43378.28253.14274.21045.22461.50687.22461.81324s-.0819.60278-.22461.81323z"/>
  <path d="m124.90935 133.46245c-.0893-.30369-.28062-.52432-.53877-.62129-.20775-.078-.44225-.0648-.66035.0373-.30051.14062-.54618.43103-.67389.79671-.10438.29882-.11742.61468-.0366.88942.0893.30369.28062.52436.5388.62133.0893.0336.18362.0502.2794.0502.12697 0 .25664-.0293.38094-.0875.30054-.14063.54618-.43101.67392-.79669v-3e-5c.10436-.29879.1174-.61468.0366-.88942zm-.53422.71562c-.08.22913-.22947.41347-.39971.49313-.0626.0293-.15703.0567-.25159.0212-.2282-.0857-.31697-.47987-.18994-.84346.0801-.22913.2295-.4135.39973-.49316.0415-.0194.097-.038.15722-.038.0306 0 .0625.005.0944.0168.2282.0857.31697.4799.18991.84352z"/>
  <path d="m117.89135 133.6751c-.12776-.36568-.3734-.65606-.67392-.79669-.21809-.10208-.45262-.11528-.66035-.0373-.25817.097-.44953.31766-.5388.62132-.0808.27475-.0677.59061.0366.88943v2e-5c.12777.36568.3734.65606.67391.79669.12433.0582.25398.0875.38096.0875.0958 0 .19007-.0167.27939-.0502.25821-.097.44955-.31763.53882-.6213.0807-.27474.0677-.5906-.0367-.88945zm-.68753 1.01732c-.0945.0355-.18901.008-.25159-.0212-.17024-.0797-.31969-.264-.39972-.49313v3e-5c-.12701-.36362-.0383-.75777.18993-.84352.0945-.0355.18901-.008.25161.0213.17025.0797.31968.264.39971.49313.12702.36362.0382.75774-.18994.84347z"/>
 </g>
 <g transform="translate(-379.48809,-443.65477)" stroke="#fff">
  <g transform="matrix(.26458333 0 0 .26458333 373.0058 437.74721)" clip-path="url(#clip0-1)" fill="none" stroke="#fff" stroke-linecap="round" stroke-linejoin="round" stroke-miterlimit="10" stroke-width="2">
   <path d="m51.5672 49.7557 16.0624 4.0104c1.9345.4834 3.5163 2.5097 3.5163 4.5047v14.5c0 1.9937-1.5878 3.2504-3.5284 2.7937l-13.485-3.1707c-1.9406-.458-3.5283-2.4626-3.5283-4.4563v-15.7084c0-1.9949 1.6312-3.625 3.625-3.625h20.5417c1.9937 0 3.625 1.6301 3.625 3.625v13.2917c0 1.9937-1.6313 3.625-3.625 3.625h-3.625"/>
   <path d="m61.4792 52.2291h12.0833"/>
   <path d="m65.7084 66.7291c1.3346 0 2.4166-1.082 2.4166-2.4167s-1.082-2.4166-2.4166-2.4166c-1.3347 0-2.4167 1.0819-2.4167 2.4166s1.082 2.4167 2.4167 2.4167z"/>
   <path d="m71.1459 58.2708h2.4166"/>
  </g>
 </g>
</svg>
