<svg width="22.158537" height="14.517676" version="1.1" viewBox="0 0 22.158537 14.517676" xmlns="http://www.w3.org/2000/svg">
 <path d="M 20.499056,0 H 1.659511 C 0.74296004,0 0,0.742966 0,1.659511 V 4.839222 H 22.158537 V 1.659511 C 22.158537,0.742966 21.415552,0 20.499056,0 Z" fill="#f5f5f5" stroke-width=".96341467"/>
 <path d="m0 12.858098c0 .916593.74296004 1.659578 1.659511 1.659578h18.839545c.916496 0 1.659481-.742985 1.659481-1.659578v-3.1796528h-22.158537z" fill="#d7141a" stroke-width=".96341467"/>
 <path d="M 22.158537,4.839136 H 0 v 4.8389232 h 22.158537 z" fill="#11457e" stroke-width=".96341467"/>
 <path d="m5.635908 10.863252c-.113085-.06493-2.770597-1.6106368-2.770597-3.9865138v-3.2473242h5.73067v3.2473242c0 2.375877-2.657512 3.9215798-2.770598 3.9865138l-.09474.05405z" fill="#d7141a" stroke-width=".96341467"/>
 <path d="m7.231699 6.3036992-.900581.118693h-.300133v-.5374892h.180082l.720461.118596-.09759-.418767.09759-.418797-.720461.118578h-.180082v-.181508l.118626-.900532-.418806.121997-.418806-.121997.118625.900532v.181508h-.180168l-.720374-.118578.09755.418797-.09755.418767.720374-.118596h.180168v.5374892h-.300181l-.900542-.118693.121959.418797-.121959.418796.900542-.118596h.300181v1.382307h.600361v-1.382307h.300133l.900581.118596-.121959-.418796z" fill="#f5f5f5" stroke-width=".96341467"/>
 <path d="m5.730602 7.8318682c-.394614 0-.733052.239408-.878634.580746-.02571-.0021-.05029-.0077-.07648-.0077-.508567 0-.920359.398661-.949531.899829.773602.9523348 1.742566 1.5197868 1.809909 1.5585158l.09473.05405.09473-.05405c.06734-.03873 1.036307-.606181 1.809909-1.5585158-.02913-.501168-.440964-.899829-.949532-.899829-.02618 0-.05081.0056-.07648.0077-.145582-.341338-.48402-.580746-.878635-.580746z" fill="#11457e" stroke-width=".96341467"/>
 <path d="m8.404984 3.82045v3.0563852c0 2.292252-2.674295 3.8204208-2.674295 3.8204208s-2.674304-1.5281688-2.674304-3.8204208v-3.0563852zm.382023-.382062h-6.112683v3.4384472c0 2.48532 2.749778 4.0851668 2.866804 4.1521238l.189561.108288.189552-.108288c.117074-.06696 2.866804-1.6668038 2.866804-4.1521238v-3.4384472z" fill="#f5f5f5" stroke-width=".96341467"/>
 <rect x="64.686852" y="30.493383" width="21.764145" height="15.066895" fill="#d7141a" stroke-width=".02464256"/>
 <rect x="64.686852" y="30.493383" width="21.764145" height="7.5334477" fill="#fff" stroke-width=".02464256"/>
 <path d="m75.56892 38.026831-10.88207-7.533448v15.066895z" fill="#11457e" stroke-width=".02464256"/>
</svg>
